<?xml version="1.0" encoding="utf-8"?>
<svg viewBox="61.666 130.311 903.062 265.172" xmlns="http://www.w3.org/2000/svg">
  <g transform="matrix(0.10000000149011612, 0, 0, -0.10000000149011612, 0, 500)" fill="#000000" stroke="none">
    <path d="M2364 3286 c-46 -20 -1054 -604 -1093 -633 -39 -30 -61 -77 -61 -133&#10;0 -66 61 -164 121 -195 37 -20 112 -19 152 1 56 29 1000 575 1053 609 58 38&#10;84 83 84 144 0 46 -12 78 -53 140 -47 69 -132 98 -203 67z"/>
    <path d="M3277 2939 c-171 -25 -254 -141 -245 -343 8 -174 76 -263 226 -295&#10;32 -7 163 -11 329 -11 255 0 280 -2 318 -20 57 -28 80 -70 80 -150 0 -50 -5&#10;-73 -23 -101 -41 -67 -54 -69 -478 -69 -372 0 -405 -3 -426 -34 -4 -6 -8 -37&#10;-8 -68 l0 -58 418 0 c519 0 561 6 643 97 53 59 73 133 66 257 -5 111 -19 155&#10;-69 211 -71 82 -139 95 -497 95 -246 0 -268 1 -307 20 -54 26 -77 73 -77 152&#10;1 65 21 109 66 142 27 20 42 21 422 26 453 6 427 0 429 97 l1 58 -405 1 c-223&#10;1 -431 -2 -463 -7z"/>
    <path d="M4538 2944 c-5 -4 -8 -265 -8 -581 l0 -573 520 0 520 0 0 58 c0 31&#10;-4 62 -8 68 -21 31 -54 34 -441 34 l-390 0 -3 480 c-3 433 -5 481 -20 496 -18&#10;18 -156 33 -170 18z"/>
    <path d="M5875 2938 c-3 -7 -4 -260 -3 -562 l3 -548 24 -19 c18 -15 39 -19 97&#10;-19 l74 0 0 554 c0 650 10 596 -113 604 -60 4 -78 2 -82 -10z"/>
    <path d="M6746 2939 c-183 -24 -282 -127 -305 -319 -13 -104 -14 -409 -1 -508&#10;24 -181 123 -284 297 -311 42 -6 221 -11 432 -11 l361 0 0 59 c0 52 -3 62 -26&#10;80 -26 20 -38 21 -353 21 -187 0 -341 4 -362 10 -56 16 -101 51 -129 100 -24&#10;44 -25 50 -28 287 -2 149 1 256 7 281 16 58 51 104 101 132 l45 25 348 5 c401&#10;6 377 -1 377 102 l0 58 -347 -1 c-192 -1 -379 -6 -417 -10z"/>
    <path d="M7860 2370 l0 -580 545 0 545 0 0 58 c0 104 36 97 -464 100 l-436 3&#10;0 169 0 170 415 0 415 0 0 80 0 80 -415 0 -415 0 0 170 0 170 418 0 c490 0&#10;462 -6 462 96 l0 64 -535 0 -535 0 0 -580z"/>
    <path d="M2158 2512 c-155 -80 -1049 -605 -1084 -637 -34 -32 -43 -49 -49 -88&#10;-17 -110 90 -247 191 -247 45 0 91 25 634 339 331 191 517 305 541 329 61 64&#10;61 138 -1 235 -16 26 -44 56 -62 67 -42 26 -121 26 -170 2z"/>
  </g>
</svg>